<?xml version="1.0" encoding="UTF-8"?>
<!DOCTYPE svg PUBLIC "-//W3C//DTD SVG 1.1//EN" "http://www.w3.org/Graphics/SVG/1.1/DTD/svg11.dtd">
<!-- Creator: CorelDRAW -->
<svg xmlns="http://www.w3.org/2000/svg" xml:space="preserve" width="210mm" height="297mm" version="1.1" style="shape-rendering:geometricPrecision; text-rendering:geometricPrecision; image-rendering:optimizeQuality; fill-rule:evenodd; clip-rule:evenodd"
viewBox="0 0 21000 29700"
 xmlns:xlink="http://www.w3.org/1999/xlink"
 xmlns:xodm="http://www.corel.com/coreldraw/odm/2003">
 <defs>
  <style type="text/css">
   <![CDATA[
    .str0 {stroke:#1868B8;stroke-width:352.78;stroke-miterlimit:22.9256}
    .fil3 {fill:none}
    .fil1 {fill:#FEFEFE}
    .fil0 {fill:#1868B8}
    .fil4 {fill:#D6EBFF}
    .fil5 {fill:#FDFDFA}
    .fil2 {fill:#FEFEFD}
   ]]>
  </style>
 </defs>
 <g id="圖層_x0020_1">
  <metadata id="CorelCorpID_0Corel-Layer"/>
  <path class="fil0" d="M15761.35 15849.38c-183.82,27.55 -813.09,1.8 -1024.71,0.19 -2045.03,-15.62 -4314.65,41.3 -6362.64,21.93l-1844.35 -0.05c-162.65,-0.05 -485.19,17.79 -627.45,-6.94 -38.3,-145.4 -10.27,-5285.75 -8.91,-5568.56l2.63 -5596.75c80.83,-31.93 4396.64,-14.32 4873.82,-14.79 813.35,-0.81 1642.05,18.43 2452.79,4.49 278.85,-4.79 2348.97,-35.84 2427.97,22.9 222.61,10.88 380.78,165.29 450.05,329.67 88.33,209.64 29.96,1210.07 40.8,1510.21 4.51,124.82 77.94,219.09 212.08,185.89 118.93,-29.44 117.67,-140.16 118.15,-282.15 1.25,-365.97 45.9,-1225.25 -62.49,-1513.7 -164.21,-436.97 -581.21,-562.82 -1018.98,-561.41 -2097.5,6.77 -4195.93,-1.07 -6293.59,0.4 -1044.54,0.74 -2093.43,-11.29 -3137.28,-2.03 -906.63,8.03 -1805.5,-144.63 -2418.1,742.44 -284.42,411.85 -331.23,676.81 -329.77,1257.97 1.33,525.8 1.96,1052.37 0.31,1578.15l0.14 9449.89c-2.93,895.08 651.43,1582.34 1426.86,1718.65 371.75,65.35 2572.58,29.23 3126.87,29.47 214.41,0.1 8496.02,23.44 8640.8,-9.42 199.2,-45.2 350.31,-324.72 164.04,-485.5 -65.73,-56.73 -179.82,-76.53 -257.69,-122.36 -301.11,-210.03 -279.98,-298.86 -517.69,-506.18 -157.05,-136.97 -416.42,-502.55 -489.41,-759 74.82,-103.77 118.71,-335.48 226.29,-531.28 107.13,-194.96 278.14,-354.04 290.56,-461.25 281.2,-105.44 294.22,-93.96 463.34,-278.49 121.05,-132.07 184.48,-329.42 187.9,-552.69 7.23,-471.35 19.67,-1017.91 0.54,-1484.44 -10.64,-259.62 -348.78,-268.6 -371.02,-0.26 -26.44,319.05 15.77,1075.78 -1.11,1484.07 -8.81,213.14 -142.89,368.36 -340.75,400.93z"/>
  <rect class="fil1" x="9905.6" y="7392.5" width="8125.32" height="5728.64" rx="1500" ry="1500"/>
  <rect class="fil1" x="5895.92" y="4926.85" width="10244.61" height="11074.92"/>
  <path class="fil2" d="M15134.15 17604.6c-50.82,-201.05 -57.54,-226.52 -80.46,-450.2 -145.2,-18.48 -381.48,-3.23 -538.22,-3.97l-7928.77 -0.13c-174.34,0.78 -417.22,29.44 -377.25,-194.31 30.18,-168.92 276.55,-125.91 434.29,-125.58l8493.47 -0.86c124.42,-296.25 301.26,-387.83 334.7,-434 -934.08,-22.92 -1883.7,-2.6 -2819.8,-5.36l-5685.14 -1.5c-474.64,-2.51 -951.34,-0.84 -1426.04,1.73 -473.42,2.56 -865.83,-47.23 -1218.69,197.6 -645.68,448.02 -724.26,1325.97 -105.27,1877.13 318.5,283.58 619.07,300.23 1133.82,299.32l7130.2 0.5c944.31,-1.51 1888.76,2.81 2833.06,0.56 184.7,-0.43 920.15,99.12 779.96,-256.05 -52.26,-132.38 -389.4,-205.76 -619.11,-445.85 -181.44,-189.66 -98.34,-139.08 -579.15,-138.41 -0.92,0 -8090.69,17.91 -8168.46,-11.14 -76.03,-28.41 -138.89,-139.71 -77.64,-233.34 80.68,-123.35 443.71,-75.36 621.54,-75.98 2618.76,-9.09 5242.97,13.68 7862.96,-0.16z"/>
  <path class="fil2" d="M3535.32 16922.48c58.76,-322.01 415.41,-689.63 612.62,-813.48 428.53,-269.11 664.53,-237.6 1213.65,-251.53l7.16 -11162.39c-641.84,-22.01 -971.79,55.21 -1352.45,387.48 -318.28,277.83 -490.6,674.41 -493.61,1277.52 -16.05,3220.23 8.49,6455.35 -0.6,9678.05 -0.6,212.94 -23.15,701.98 13.23,884.35z"/>
  <path class="fil0" d="M8278.93 7567.66l7833.71 0.07c394.94,0.51 824.48,-45.9 1163.55,138.78 791.33,431.02 654.7,1278.26 656.26,2152.12l0.37 1730.26c-0.59,890.56 -531.5,1359.5 -1401.88,1360.44l-4011.92 -0.77c-568.23,1.86 -377.52,-62.83 -932.67,350.36l-733.01 543.54 -8.81 -523.31c1.83,-401.56 46.54,-372.15 -531.12,-371.81l-2148.57 -0.14c-183.15,-0.62 -364.36,-37.37 -419.84,104.59 -137.12,350.81 471.34,268.64 743.08,268.82l1913.67 1.39 2.9 757.71c-0.16,159.51 -13.74,274.51 99.38,342.34 122.99,73.75 225.87,10.73 310.08,-50.68l1271.58 -934.03c223.99,-158.36 132.42,-117.25 547.41,-117.42l3802.77 -3.43c626.54,-1.61 915.61,-108.14 1288.34,-420.05 319.82,-267.63 519.85,-728.4 520.87,-1193.47l0.59 -2966.16c-1.51,-878.82 -737.79,-1534.47 -1695.71,-1532.45l-8328.08 -2.36c-202.33,-0.12 -507.87,-47.79 -487.05,200.19 18.71,222.68 338.94,165.51 544.1,165.47z"/>
  <path class="fil3 str0" d="M16283.82 13911.63c6.26,331.71 12.52,663.43 11.47,949.25 -1.04,285.81 -9.38,525.73 -26.07,674.9 -16.69,149.17 -41.73,207.58 -83.46,267.04 -41.72,59.46 -100.13,119.96 -170.02,174.2 -69.89,54.24 -151.26,102.23 -229.49,171.07 -78.23,68.85 -153.34,158.56 -232.62,276.43 -79.27,117.88 -162.72,263.92 -227.4,398.48 -64.67,134.57 -110.57,257.65 -117.88,378.65 -7.3,121.01 24,239.92 78.24,352.58 54.24,112.66 131.44,219.06 215.93,309.81 84.49,90.75 176.29,165.86 280.89,250.05 104.61,84.19 222.02,177.46 312.37,249.62 90.35,72.17 153.64,123.21 220.43,194.66 66.8,71.46 137.11,163.33 139.6,217.38 2.49,54.06 -62.85,70.32 -119.51,96.17 -56.65,25.86 -104.64,61.33 -152.62,96.79m-422.33 -3119.33l-9850.96 1.91 -1.28 -11149.36 9741.39 9.87c-79,-58.74 -2149.12,-27.69 -2427.97,-22.9 -810.74,13.94 -1639.44,-5.3 -2452.79,-4.49 -477.18,0.47 -4792.99,-17.14 -4873.82,14.79l-2.63 5596.75c-1.36,282.81 -29.39,5423.16 8.91,5568.56 142.26,24.73 464.8,6.89 627.45,6.94l1844.35 0.05c2047.99,19.37 4134.47,-17.73 6179.5,-2.11 211.62,1.61 1086.44,44.5 1207.85,-20.01z"/>
  <g id="_2532935916592">
   <path class="fil4" d="M12646.1 8400.16c-294.42,28.49 -483.1,75.2 -714.23,190.85 -24.62,12.32 -47.51,26.56 -70.81,39.65 -28.05,15.74 -51.79,28.19 -72.96,42.72 -156.61,107.46 -239.98,164.37 -366.69,310.54 -37.8,43.6 -56.54,53.6 -102.67,122.3 -31.94,47.59 -67.7,86.83 -94.84,131.82 -344.86,571.52 -370.23,1180.02 -85.33,1788.94 70.57,150.84 176.04,275.68 280.78,395.78 31.27,35.86 66.02,79.43 109.78,116.11 12.23,10.25 14.53,12.82 27.64,24.07l95.43 78.12c90.32,86.19 324.63,209.14 428.72,247.74 120.32,44.63 216.33,76.66 350.43,100.94 141.92,25.7 282.99,38.2 431.36,29.27 252.86,-15.23 519.41,-90.15 710.67,-192.99 223.91,-120.4 400.44,-259.17 561.72,-451.09 456.32,-543.04 554.78,-1345.12 235.08,-1987.18 -88.84,-178.42 -239.1,-392.15 -382.44,-520.34l-183.97 -151.66c-105.58,-78.55 -242.77,-145.94 -370.53,-197.32 -214.75,-86.35 -528.81,-143.27 -787.14,-118.27z"/>
   <path class="fil0" d="M12004.29 10281.75l-174.52 -1.15c10.35,165.18 29.59,295.06 63.44,446.97 15.63,70.13 31.28,135.11 53.99,199.68l64.87 192.06 1477.56 -0.63c17.2,-67.06 49.31,-122.49 68,-186.32 72.55,-247.8 99.85,-379.13 119.75,-652.65 -120.22,-9.71 -247.47,30.19 -285.13,-35.55 -26.64,-46.51 -2.28,-102.31 28.81,-119.16 32.78,-17.77 198.38,-9.75 255.94,-9.4 11.45,-85.29 -35.71,-334.03 -54.42,-424.34 -27.83,-134.32 -69.92,-247.51 -114.12,-368.84l-1502.91 0.39c-75.9,161.61 -138.03,413.05 -159.76,612.92 -24.46,224.97 -54.95,174.12 178.01,179 136.93,2.88 123.77,116.13 69.95,154.24 -26.12,18.5 -52.43,12.78 -89.46,12.78z"/>
   <path class="fil5" d="M12264.61 9894.23c57.97,16.35 269.67,-0.01 349.48,5.27 19.8,67.91 -9.8,876.41 6.86,927.73 41.11,7.47 247.05,10.64 282.36,-0.17l0.99 -924.77c68.98,-19.43 315.63,14.54 358.16,-12.9 11.03,-13.21 7.78,-247.07 -3.82,-227.88 -0.9,1.49 -3.61,-1.86 -4.89,-2.24 -1.32,-0.39 -3.53,-1.44 -5.21,-1.84l-37.47 -2.41c-172.89,2.22 -917.7,-6.34 -951.94,3.56 -1.71,50.44 -6.11,197.1 5.48,235.65z"/>
   <path class="fil0" d="M11384.86 11113.6l454.1 3.69c-16.01,-57.54 -43.12,-125.94 -61.82,-188.47 -62.3,-208.35 -104.03,-422.22 -110.01,-645.05 -33.78,-8.25 -512.21,-7.94 -552.33,-0.38 30.46,373.83 107.7,560.4 270.06,830.21z"/>
   <path class="fil0" d="M13663.8 11119.11l449.96 -2.16c68.57,-88.96 142.68,-270.04 183.34,-374.44 42.82,-109.93 98.22,-331.47 93.44,-458.92 -43.09,-8.05 -488.45,-6.25 -547.46,-1.59 -6.92,158.98 -24.13,293.86 -60.12,444.54 -19.7,82.5 -53.43,211.22 -82.9,290.98 -13.17,35.66 -30.88,66.95 -36.26,101.59z"/>
   <path class="fil0" d="M11115.41 10114.02l545.53 0.28c12.21,-48.98 24.81,-269.62 57.82,-419.61 15.11,-68.64 28.6,-125.99 47.88,-191.63 14.31,-48.72 56.39,-146.04 60.56,-183.6l-416.96 3.21c-49.2,-0.36 -39.41,-8.65 -82.8,70.64 -102.15,186.67 -226.01,501.9 -212.03,720.71z"/>
   <path class="fil0" d="M13843.95 10114.84l545.32 -0.6c6.67,-122.16 -48.49,-331.49 -81.4,-436.17 -25.53,-81.2 -124.05,-310.28 -170.11,-353.03l-459.88 -2.04c5.62,36.63 43.01,126.79 57.88,174.88 36.97,119.61 73.63,258.36 88.23,386.08 8.48,74.24 8.16,160.44 19.96,230.88z"/>
   <path class="fil0" d="M12076.75 9163.16l601.87 -2.73 0.22 -580.84c-139.78,7.21 -287.18,146.96 -365.85,224.71 -56.67,56.01 -215.75,279.8 -236.24,358.86z"/>
   <path class="fil0" d="M12838.57 9163.42c68.16,-5.51 540.41,-5.71 597.89,2.17 -26.9,-91.36 -109.26,-199.07 -168.15,-275.39 -101.45,-131.46 -236.04,-257.37 -430.47,-307.14l0.73 580.36z"/>
   <path class="fil0" d="M12679.6 11843.92l-1.13 -562.68 -588.2 -1.19c9.64,37.14 83.07,146.68 108.31,182.97 85.25,122.55 153.41,206.21 273.94,293.96 46.69,33.99 135.44,78.23 207.08,86.94z"/>
   <path class="fil0" d="M12838.63 11844.41c66.79,-8.51 141.08,-58.11 194.44,-93.76 85.3,-57.01 221.63,-202.76 271.75,-289.86 26.67,-46.34 94.97,-144 107.71,-180.46l-571.59 2.1 -2.31 561.98z"/>
   <path class="fil0" d="M13617.26 9159.14l410.33 3.36c-17.83,-33.73 -49.91,-65.4 -75.08,-92.29 -88.73,-94.82 -155.24,-151.26 -263.43,-227.24 -94.33,-66.24 -341.75,-198.43 -444.19,-208.7 9.11,20.45 39.08,36.37 54.45,50.63 51.02,47.36 157.77,186.06 198.98,252.41l118.94 221.83z"/>
   <path class="fil0" d="M11485.56 9164.08l408.13 -4.34c66.11,-122.63 55.6,-136.12 160,-285.48 63.56,-90.96 83.49,-107.89 153.13,-182.57 19.59,-21.01 37.78,-32.85 55.34,-60.22 -200.76,66.13 -472.92,208.31 -616.58,356.55 -53.31,55.02 -69.32,64.74 -120.34,125.5 -37.7,44.9 -27.25,14.57 -39.68,50.56z"/>
   <path class="fil0" d="M13254.32 11778.53c142.01,-29.64 435.8,-202.96 547.82,-304.15 17.64,-15.94 24.11,-22.65 40.78,-36.75l136.55 -134.41c11.2,-14.42 8.92,-3.99 11.74,-24.98l-380.63 2.74c-30.9,6 -50.74,75.97 -90.62,143.66 -40.11,68.06 -75.45,122.54 -123.78,185.8 -81.57,106.75 -64.29,75.49 -127.2,143.71 -17.11,18.55 -9.48,5.04 -14.66,24.38z"/>
   <path class="fil0" d="M12250.62 11776.22c-22.21,-30.96 -24.18,-30.07 -52.54,-54.4 -59.36,-50.94 -176.78,-224.09 -219.23,-297.33 -20.65,-35.64 -50.76,-117.73 -71.35,-142.21l-396.29 -4.83c7.65,22.61 3.58,18.03 33.66,45.72 44.62,41.06 55.15,60.88 119.37,112.99 56.35,45.73 101.14,90.34 173.51,135.45 104.99,65.45 274.64,175.82 412.87,204.61z"/>
  </g>
 </g>
</svg>
